<?xml version="1.0"?><svg width="405" height="405" xmlns="http://www.w3.org/2000/svg" xmlns:xlink="http://www.w3.org/1999/xlink">
 <title>clock</title>
 <defs>
  <linearGradient id="linearGradient3677">
   <stop offset="0" id="stop3679" stop-color="#000000"/>
   <stop id="stop3685" offset="0.81875" stop-color="#000000"/>
   <stop offset="1" id="stop3681" stop-opacity="0" stop-color="#000000"/>
  </linearGradient>
  <linearGradient id="linearGradient3593">
   <stop offset="0" id="stop3595" stop-color="#000000"/>
   <stop offset="1" id="stop3597" stop-color="#616161"/>
  </linearGradient>
  <linearGradient id="linearGradient3585">
   <stop offset="0" id="stop3587" stop-color="#d0d0d0"/>
   <stop offset="1" id="stop3589" stop-color="#ffffff"/>
  </linearGradient>
  <linearGradient id="linearGradient3377">
   <stop offset="0" id="stop3379" stop-color="#3ca1f6"/>
   <stop offset="1" id="stop3381" stop-color="#207dcc"/>
  </linearGradient>
  <linearGradient id="linearGradient3335">
   <stop offset="0" id="stop3337" stop-color="#f5f5f5"/>
   <stop offset="1" id="stop3339" stop-color="#e5e5e5"/>
  </linearGradient>
  <linearGradient id="linearGradient3322">
   <stop id="stop3333" offset="0" stop-color="#f7f7f7"/>
   <stop offset="1" id="stop3326" stop-color="#c2c2c2"/>
  </linearGradient>
  <linearGradient id="linearGradient3232">
   <stop offset="0" id="stop3234" stop-color="#ffffff"/>
   <stop id="stop3240" offset="0.5" stop-opacity="0.564706" stop-color="#ffffff"/>
   <stop offset="1" id="stop3236" stop-opacity="0" stop-color="#ffffff"/>
  </linearGradient>
  <linearGradient id="linearGradient3222">
   <stop id="stop3224" offset="0" stop-color="#30a9ec"/>
   <stop id="stop3226" offset="1" stop-opacity="0" stop-color="#0a4c71"/>
  </linearGradient>
  <linearGradient id="linearGradient3210">
   <stop offset="0" id="stop3212" stop-color="#266080"/>
   <stop offset="1" id="stop3214" stop-color="#112d3c"/>
  </linearGradient>
  <linearGradient id="linearGradient3194">
   <stop offset="0" id="stop3196" stop-color="#565656"/>
   <stop offset="1" id="stop3198" stop-color="#ffffff"/>
  </linearGradient>
  <linearGradient id="linearGradient3184">
   <stop offset="0" id="stop3186" stop-color="#9b9b9b"/>
   <stop offset="1" id="stop3188" stop-color="#454545"/>
  </linearGradient>
  <linearGradient id="linearGradient3176">
   <stop offset="0" id="stop3178" stop-color="#f7f7f7"/>
   <stop offset="1" id="stop3180" stop-color="#e1e1e1"/>
  </linearGradient>
  <linearGradient xlink:href="#linearGradient3176" id="linearGradient3182" x1="80.242935" y1="392.19894" x2="208.64937" y2="254.95482" gradientUnits="userSpaceOnUse"/>
  <radialGradient xlink:href="#linearGradient3184" id="radialGradient3192" cx="293.05493" cy="160.01251" fx="293.05493" fy="160.01251" r="189.28572" gradientTransform="matrix(2.075073,0.5560142,-0.6399111,2.3881808,-187.16478,-314.91509)" gradientUnits="userSpaceOnUse"/>
  <linearGradient xlink:href="#linearGradient3194" id="linearGradient3200" x1="296.89822" y1="68.567726" x2="188.40916" y2="391.42859" gradientUnits="userSpaceOnUse"/>
  <linearGradient xlink:href="#linearGradient3194" id="linearGradient3208" x1="250.58675" y1="299.48981" x2="331.7092" y2="35.84182" gradientUnits="userSpaceOnUse"/>
  <radialGradient xlink:href="#linearGradient3210" id="radialGradient3216" cx="197.85715" cy="202.14285" fx="197.85715" fy="202.14285" r="189.28572" gradientUnits="userSpaceOnUse"/>
  <radialGradient xlink:href="#linearGradient3222" id="radialGradient3220" gradientUnits="userSpaceOnUse" cx="197.85715" cy="630.49414" fx="197.85715" fy="630.49414" r="189.28572" gradientTransform="matrix(1.0709848,0,0,0.6681877,-14.04486,-29.859857)"/>
  <radialGradient xlink:href="#linearGradient3232" id="radialGradient3238" cx="295.90915" cy="-341.75525" fx="295.90915" fy="-341.75525" r="189.28572" gradientUnits="userSpaceOnUse" gradientTransform="matrix(0.9616839,0.4972235,-0.3694582,0.714572,-93.625628,109.9329)"/>
  <linearGradient xlink:href="#linearGradient3377" id="linearGradient3341" x1="222.84375" y1="231.44855" x2="152.13307" y2="77.905357" gradientUnits="userSpaceOnUse"/>
  <linearGradient xlink:href="#linearGradient3335" id="linearGradient3349" x1="224.82585" y1="185.64465" x2="156.40765" y2="249.28427" gradientUnits="userSpaceOnUse"/>
  <linearGradient xlink:href="#linearGradient3335" id="linearGradient3357" x1="171.59375" y1="204.66878" x2="310.03601" y2="237.5" gradientUnits="userSpaceOnUse"/>
  <radialGradient xlink:href="#linearGradient3322" id="radialGradient3394" cx="197.85715" cy="202.14285" fx="197.85715" fy="202.14285" r="189.28572" gradientUnits="userSpaceOnUse"/>
  <linearGradient xlink:href="#linearGradient3585" id="linearGradient3591" x1="72.285706" y1="350.66031" x2="286.38196" y2="215.29987" gradientUnits="userSpaceOnUse"/>
  <linearGradient xlink:href="#linearGradient3593" id="linearGradient3599" x1="84.34774" y1="137.36035" x2="293.95438" y2="62.103973" gradientUnits="userSpaceOnUse"/>
  <linearGradient xlink:href="#linearGradient3194" id="linearGradient3621" gradientUnits="userSpaceOnUse" x1="250.58675" y1="299.48981" x2="331.7092" y2="35.84182"/>
  <radialGradient xlink:href="#linearGradient3184" id="radialGradient3623" gradientUnits="userSpaceOnUse" gradientTransform="matrix(2.075073,0.5560142,-0.6399111,2.3881808,-187.16478,-314.91509)" cx="293.05493" cy="160.01251" fx="293.05493" fy="160.01251" r="189.28572"/>
  <linearGradient xlink:href="#linearGradient3176" id="linearGradient3625" gradientUnits="userSpaceOnUse" x1="80.242935" y1="392.19894" x2="208.64937" y2="254.95482"/>
  <linearGradient xlink:href="#linearGradient3194" id="linearGradient3627" gradientUnits="userSpaceOnUse" x1="296.89822" y1="68.567726" x2="188.40916" y2="391.42859"/>
  <radialGradient xlink:href="#linearGradient3210" id="radialGradient3629" gradientUnits="userSpaceOnUse" cx="197.85715" cy="202.14285" fx="197.85715" fy="202.14285" r="189.28572"/>
  <radialGradient xlink:href="#linearGradient3222" id="radialGradient3631" gradientUnits="userSpaceOnUse" gradientTransform="matrix(1.0709848,0,0,0.6681877,-14.04486,-29.859857)" cx="197.85715" cy="630.49414" fx="197.85715" fy="630.49414" r="189.28572"/>
  <radialGradient xlink:href="#linearGradient3232" id="radialGradient3633" gradientUnits="userSpaceOnUse" gradientTransform="matrix(0.9616839,0.4972235,-0.3694582,0.714572,-93.625628,109.9329)" cx="295.90915" cy="-341.75525" fx="295.90915" fy="-341.75525" r="189.28572"/>
  <linearGradient xlink:href="#linearGradient3377" id="linearGradient3635" gradientUnits="userSpaceOnUse" x1="222.84375" y1="231.44855" x2="152.13307" y2="77.905357"/>
  <linearGradient xlink:href="#linearGradient3335" id="linearGradient3637" gradientUnits="userSpaceOnUse" x1="171.59375" y1="204.66878" x2="310.03601" y2="237.5"/>
  <linearGradient xlink:href="#linearGradient3335" id="linearGradient3639" gradientUnits="userSpaceOnUse" x1="224.82585" y1="185.64465" x2="156.40765" y2="249.28427"/>
  <radialGradient xlink:href="#linearGradient3322" id="radialGradient3641" gradientUnits="userSpaceOnUse" cx="197.85715" cy="202.14285" fx="197.85715" fy="202.14285" r="189.28572"/>
  <linearGradient xlink:href="#linearGradient3593" id="linearGradient3643" gradientUnits="userSpaceOnUse" x1="84.34774" y1="137.36035" x2="293.95438" y2="62.103973"/>
  <linearGradient xlink:href="#linearGradient3585" id="linearGradient3645" gradientUnits="userSpaceOnUse" x1="72.285706" y1="350.66031" x2="286.38196" y2="215.29987"/>
  <linearGradient xlink:href="#linearGradient3585" id="linearGradient3648" x1="0.172488" y1="0.808898" x2="0.762133" y2="0.15705"/>
  <linearGradient xlink:href="#linearGradient3593" id="linearGradient3651" x1="0.152251" y1="0.606792" x2="0.733432" y2="0.24912"/>
  <linearGradient xlink:href="#linearGradient3335" id="linearGradient3656" x1="1.038336" y1="0.084665" x2="0.234598" y2="0.832267"/>
  <linearGradient xlink:href="#linearGradient3335" id="linearGradient3660" x1="0" y1="0.336743" x2="0.883909" y2="1"/>
  <linearGradient xlink:href="#linearGradient3377" id="linearGradient3664" x1="1" y1="0.965961" x2="0.283035" y2="0.04013"/>
  <radialGradient xlink:href="#linearGradient3677" id="radialGradient3683" cx="197.85715" cy="202.14285" fx="197.85715" fy="202.14285" r="189.28572" gradientUnits="userSpaceOnUse" gradientTransform="matrix(1.0003768,0,0,1.0003768,-7.4558932e-2,-7.6174716e-2)"/>
  <radialGradient xlink:href="#linearGradient3322" id="radialGradient3687" gradientUnits="userSpaceOnUse" cx="197.85715" cy="202.14285" fx="197.85715" fy="202.14285" r="189.28572"/>
  <radialGradient xlink:href="#linearGradient3232" id="radialGradient3689" gradientUnits="userSpaceOnUse" gradientTransform="matrix(0.9616839,0.4972235,-0.3694582,0.714572,-93.625628,109.9329)" cx="295.90915" cy="-341.75525" fx="295.90915" fy="-341.75525" r="189.28572"/>
  <radialGradient xlink:href="#linearGradient3222" id="radialGradient3691" gradientUnits="userSpaceOnUse" gradientTransform="matrix(1.0709848,0,0,0.6681877,-14.04486,-29.859857)" cx="197.85715" cy="630.49414" fx="197.85715" fy="630.49414" r="189.28572"/>
  <radialGradient xlink:href="#linearGradient3210" id="radialGradient3693" gradientUnits="userSpaceOnUse" cx="197.85715" cy="202.14285" fx="197.85715" fy="202.14285" r="189.28572"/>
  <linearGradient xlink:href="#linearGradient3194" id="linearGradient3695" x1="0.761618" y1="-Infinity" x2="0.475043" y2="Infinity"/>
  <linearGradient xlink:href="#linearGradient3176" id="linearGradient3697" x1="0.189321" y1="12455516.73184" x2="0.528508" y2="3461086.08352"/>
  <radialGradient xlink:href="#linearGradient3184" id="radialGradient3699" gradientUnits="userSpaceOnUse" gradientTransform="matrix(2.075073,0.5560142,-0.6399111,2.3881808,-187.16478,-314.91509)" cx="293.05493" cy="160.01251" fx="293.05493" fy="160.01251" r="189.28572"/>
  <linearGradient xlink:href="#linearGradient3194" id="linearGradient3701" x1="0.639286" y1="Infinity" x2="0.853571" y2="-Infinity"/>
  <linearGradient xlink:href="#linearGradient3176" id="svg_1" x1="0.810679" y1="-12455515.73184" x2="0.471492" y2="-3461085.08352"/>
 </defs>
 <metadata id="metadata7">image/svg+xml</metadata>
 <g>
  <title>Layer 1</title>
  <g id="layer1">
   <path id="path3675" d="m403,212.999985a204.999985,204.999985 0 1 1 -410,0a204.999985,204.999985 0 1 1 410,0z" stroke-dashoffset="0" stroke-miterlimit="4" marker-end="none" marker-mid="none" marker-start="none" stroke-width="2.7" fill-rule="evenodd" fill="url(#radialGradient3683)"/>
   <path id="path2170" d="m403,201.999985a199.999985,199.999985 0 1 1 -400,0a199.999985,199.999985 0 1 1 400,0z" stroke-dashoffset="0" stroke-miterlimit="4" marker-end="none" marker-mid="none" marker-start="none" stroke-width="2.7" fill-rule="evenodd" fill="url(#linearGradient3701)"/>
   <path id="path2172" d="m399.000031,202a196,196 0 1 1 -392.000031,0a196,196 0 1 1 392.000031,0z" stroke-dashoffset="0" stroke-miterlimit="4" marker-end="none" marker-mid="none" marker-start="none" stroke-width="2.7" fill-rule="evenodd" fill="#b1b1b1"/>
   <path id="path3168" d="m392.321533,252.728577a189.321487,189.321487 0 1 1 -378.642973,-101.457108l189.32147,50.728561l189.321533,50.728546l-0.000031,0z" stroke-dashoffset="0" stroke-miterlimit="4" marker-end="none" marker-mid="none" marker-start="none" stroke-width="2.7" fill-rule="evenodd" fill="url(#radialGradient3699)"/>
   <path id="path3174" d="m13.67849,151.271408a189.321487,189.321487 0 1 1 378.642982,101.457108l-189.321487,-50.728561l-189.321495,-50.728546z" stroke-dashoffset="0" stroke-miterlimit="4" marker-end="none" marker-mid="none" marker-start="none" stroke-width="2.7" fill-rule="evenodd" fill="url(#svg_1)"/>
   <path id="path3146" d="m369,202a166,166 0 1 1 -332,0a166,166 0 1 1 332,0z" stroke-dashoffset="0" stroke-miterlimit="4" marker-end="none" marker-mid="none" marker-start="none" stroke-width="2.7" fill-rule="evenodd" fill="url(#linearGradient3695)"/>
   <path id="path3148" d="m363,202a160,160 0 1 1 -320,0a160,160 0 1 1 320,0z" stroke-dashoffset="0" stroke-miterlimit="4" marker-end="none" marker-mid="none" marker-start="none" stroke-width="2.7" fill-rule="evenodd" fill="url(#radialGradient3693)"/>
   <path id="path3218" d="m358.000031,202a155,155 0 1 1 -310.000031,0a155,155 0 1 1 310.000031,0z" stroke-dashoffset="0" stroke-miterlimit="4" marker-end="none" marker-mid="none" marker-start="none" stroke-width="2.7" fill-rule="evenodd" fill="url(#radialGradient3691)"/>
   <path id="path3361" d="m353.000031,202a150,150 0 1 1 -300.000031,0a150,150 0 1 1 300.000031,0z" stroke-dashoffset="0" stroke-miterlimit="4" marker-end="none" marker-mid="none" marker-start="none" stroke-width="2.7" fill-rule="evenodd" fill="url(#radialGradient3689)"/>
   <path id="path3320" d="m211.000015,202a8,8 0 1 1 -16,0a8,8 0 1 1 16,0z" stroke-dashoffset="0" stroke-miterlimit="4" marker-end="none" marker-mid="none" marker-start="none" stroke-width="2.7" fill-rule="evenodd" fill="#9c9c9c"/>
   <path id="path3386" d="m210.000015,202.000015a7,7 0 1 1 -14,0a7,7 0 1 1 14,0z" stroke-dashoffset="0" stroke-miterlimit="4" marker-end="none" marker-mid="none" marker-start="none" stroke-width="2.7" fill-rule="evenodd" fill="url(#radialGradient3687)"/>
   <path d="m201.125015,11.68751l-7.46875,0.46874l0.03125,0.75c0.421661,0.01393 0.769257,0.0387 1.03125,0.0625c0.28067,0.00263 0.491592,0.02383 0.65625,0.09375c0.18335,0.04876 0.337677,0.14525 0.40625,0.28125c0.087265,0.11483 0.110107,0.29173 0.125,0.53125c0.028473,0.45914 -0.205688,1.14704 -0.75,2.06251c-0.52562,0.89429 -1.305069,2.09966 -2.3125,3.62499l-3.1875,-4.3125c-0.327927,-0.44051 -0.482651,-0.78302 -0.5,-1.0625c-0.019836,-0.31936 0.059052,-0.56662 0.25,-0.71875c0.210892,-0.15333 0.58725,-0.25906 1.125,-0.3125c0.05986,-0.00369 0.349792,-0.05036 0.90625,-0.125l-0.03125,-0.71875l-10.375,0.62501l0.0625,0.75c0.541428,0.00649 0.968185,0.11152 1.28125,0.31249c0.313049,0.20102 0.717499,0.63107 1.21875,1.28125l6.46875,8.34375l-4.8125,6.9375c-0.424438,0.58742 -0.856964,1.01445 -1.28125,1.28126c-0.424301,0.26679 -1.016388,0.46805 -1.75,0.59374l0.0625,0.75l7.46875,-0.46875l-0.03125,-0.74999c-0.924438,-0.04283 -1.568298,-0.143869 -1.9375,-0.28125c-0.35051,-0.15859 -0.538971,-0.401979 -0.5625,-0.78126c-0.019836,-0.319389 0.127869,-0.826401 0.46875,-1.46875c0.340851,-0.642349 1.038788,-1.75729 2.0625,-3.34375l1.03125,-1.59375l3.3125,4.6875c0.460068,0.63271 0.723953,1.14332 0.75,1.5625c0.03096,0.49905 -0.465729,0.81319 -1.5,0.93751c-0.039932,0.00247 -0.32724,0.052851 -0.84375,0.12499l0.03125,0.71875l10.1875,-0.625l-0.03125,-0.75c-0.520264,0.01226 -0.965881,-0.09787 -1.34375,-0.375c-0.359192,-0.298321 -0.933258,-0.966669 -1.71875,-2l-6,-8.15625l2.1875,-3.46875c1.207169,-1.85833 2.123459,-3.0651 2.75,-3.625c0.626495,-0.55987 1.513321,-0.92454 2.625,-1.09375l-0.0625,-0.74999zm3.53125,0.18749l-0.03125,0.75c1.076447,0.11861 1.787201,0.31162 2.15625,0.625c0.389709,0.29416 0.589676,0.83426 0.5625,1.59375l-0.53125,14.5c-0.027206,0.75951 -0.235229,1.29628 -0.625,1.5625c-0.369797,0.266951 -1.095901,0.40889 -2.21875,0.46875l-0.03125,0.75l10.46875,0.375l0.03125,-0.75c-1.136429,-0.120741 -1.88028,-0.331591 -2.25,-0.625c-0.369751,-0.293421 -0.527924,-0.814251 -0.5,-1.59375l0.5,-14.5c0.027893,-0.77949 0.245758,-1.33948 0.65625,-1.625c0.410461,-0.28547 1.180511,-0.40561 2.28125,-0.40625l0.03125,-0.75l-10.5,-0.375zm12.96875,0.53125l-0.0625,0.75c1.06575,0.19225 1.778366,0.44326 2.125,0.78126c0.368607,0.32021 0.516754,0.86916 0.4375,1.62499l-1.53125,14.43751c-0.079285,0.75585 -0.31163,1.26116 -0.71875,1.49999c-0.387253,0.240919 -1.156937,0.36113 -2.28125,0.34376l-0.0625,0.750002l10.4375,1.09375l0.0625,-0.75c-1.125443,-0.198502 -1.838791,-0.463142 -2.1875,-0.781261c-0.348724,-0.31811 -0.48764,-0.880501 -0.40625,-1.65625l1.5,-14.4375c0.08136,-0.77572 0.352127,-1.27459 0.78125,-1.53125c0.429092,-0.25661 1.18306,-0.35619 2.28125,-0.28125l0.09375,-0.75l-10.46875,-1.09375zm-103.343758,22.21875l-9.09375,5.1875l0.34375,0.65625c0.978012,-0.465092 1.708832,-0.666302 2.1875,-0.59375c0.486176,0.045288 0.936295,0.402161 1.3125,1.0625l7.187515,12.593761c0.376221,0.660339 0.472794,1.22485 0.28125,1.65625c-0.174202,0.421478 -0.732613,0.952427 -1.656265,1.59375l0.34375,0.65625l9.156258,-5.218761l-0.375,-0.625c-1.030136,0.494808 -1.78125,0.71143 -2.25,0.65625c-0.468796,-0.05518 -0.895142,-0.416019 -1.281242,-1.09375l-7.187515,-12.625c-0.386108,-0.677719 -0.480286,-1.260059 -0.28125,-1.71875c0.199066,-0.458649 0.782784,-0.983212 1.71875,-1.5625l-0.40625,-0.625zm188.312492,5.46875l-0.40625,0.625c0.860626,0.657341 1.377014,1.22858 1.53125,1.6875c0.181885,0.453121 0.040405,0.98859 -0.375,1.625l-7.90625,12.156261c-0.415405,0.636398 -0.872498,0.973228 -1.34375,1c-0.454498,0.03767 -1.194946,-0.22155 -2.1875,-0.75l-0.40625,0.625l8.8125,5.75l0.40625,-0.625c-0.910889,-0.69014 -1.459839,-1.245331 -1.625,-1.6875c-0.165161,-0.4422 -0.020081,-1.00309 0.40625,-1.65625l7.9375,-12.156261c0.426361,-0.653149 0.876038,-0.998669 1.375,-1.03125c0.498932,-0.03257 1.213257,0.244728 2.15625,0.8125l0.40625,-0.625l-8.78125,-5.75zm-200.499992,1.4375l-6.125,4.3125l0.4375,0.625c0.365913,-0.210011 0.639671,-0.382401 0.875,-0.5c0.240082,-0.145439 0.479431,-0.222832 0.65625,-0.25c0.181572,-0.055012 0.33889,-0.048328 0.46875,0.03125c0.134636,0.05175 0.236336,0.179131 0.375,0.375c0.265785,0.375462 0.418755,1.091351 0.4375,2.15625c0.023491,1.03706 -0.00827,2.454071 -0.0625,4.28125l-4.9375,-1.96875c-0.510635,-0.20208 -0.838219,-0.4277 -1,-0.65625c-0.184898,-0.261162 -0.269836,-0.488911 -0.1875,-0.71875c0.098671,-0.24136 0.383324,-0.546661 0.8125,-0.875c0.048981,-0.034649 0.284805,-0.20628 0.71875,-0.5625l-0.4375,-0.625l-8.46875,5.968761l0.4375,0.65625c0.46386,-0.27935 0.878029,-0.41246 1.25,-0.40625c0.371971,0.006237 0.950409,0.148277 1.71875,0.4375l9.875,3.6875l-0.46875,8.437504c-0.05188,0.722832 -0.185799,1.299866 -0.40625,1.749992c-0.220459,0.450104 -0.567245,0.944633 -1.125,1.4375l0.4375,0.59375l6.09375,-4.312492l-0.4375,-0.625c-0.80867,0.449936 -1.394981,0.703819 -1.78125,0.78125c-0.381508,0.04953 -0.686699,-0.06485 -0.90625,-0.375c-0.184898,-0.2612 -0.326935,-0.774414 -0.375,-1.500004c-0.048088,-0.725601 -0.035896,-2.018532 0,-3.90625l0.03125,-1.90625l5.28125,2.1875c0.724144,0.296017 1.226082,0.6572 1.46875,1c0.288902,0.408089 0.032913,0.912617 -0.78125,1.5625c-0.032654,0.023109 -0.254959,0.198147 -0.65625,0.53125l0.4375,0.625l8.3125,-5.90625l-0.4375,-0.59375c-0.435989,0.28413 -0.876595,0.3806 -1.34375,0.34375c-0.46241,-0.06472 -1.319588,-0.315781 -2.53125,-0.78125l-9.34375,-3.78125l0.03125,-4.093761c0.048889,-2.215469 0.199265,-3.725471 0.4375,-4.53125c0.23822,-0.80574 0.799889,-1.58374 1.65625,-2.3125l-0.4375,-0.59375zm261.312492,57.812508l-0.625,0.40625c0.492371,0.964546 0.684082,1.675705 0.625,2.15625c-0.031586,0.487236 -0.350494,0.91787 -1,1.3125l-12.4375,7.5625c-0.649536,0.394615 -1.188354,0.491875 -1.625,0.3125c-0.426178,-0.16227 -0.957977,-0.688484 -1.625,-1.59375l-0.65625,0.375l5.46875,8.968742l0.625,-0.375c-0.52356,-1.015839 -0.760742,-1.779861 -0.71875,-2.249992c0.041992,-0.470161 0.427155,-0.907501 1.09375,-1.3125l12.40625,-7.53125c0.666595,-0.405014 1.223389,-0.498581 1.6875,-0.3125c0.46405,0.186089 0.988373,0.736931 1.59375,1.65625l0.65625,-0.375l-5.46875,-9zm-321.093739,0.71875l-3.6875,6.53125l0.65625,0.375c0.241028,-0.34626 0.462528,-0.605621 0.625,-0.8125c0.154888,-0.234116 0.289268,-0.399857 0.4375,-0.5c0.14064,-0.127335 0.286079,-0.203941 0.4375,-0.1875c0.143829,-0.01078 0.322159,0.03846 0.53125,0.15625c0.400768,0.22583 0.840378,0.82653 1.3125,1.78125c0.464539,0.92749 1.080509,2.231209 1.8125,3.90625l-5.375,0.3125c-0.548031,0.035576 -0.94355,-0.018806 -1.1875,-0.15625c-0.278782,-0.157089 -0.4137,-0.350761 -0.4375,-0.59375c-0.013962,-0.260391 0.0961,-0.613449 0.34375,-1.09375c0.029449,-0.052261 0.166199,-0.33622 0.40625,-0.84375l-0.65625,-0.375l-5.09375,9.031242l0.65625,0.375c0.299938,-0.450813 0.629829,-0.752869 0.96875,-0.90625c0.33894,-0.153358 0.900528,-0.245552 1.71875,-0.312492l10.53125,-0.90625l3.1875,7.843742c0.26207,0.67569 0.381889,1.248871 0.375,1.75c-0.006901,0.501167 -0.143932,1.097267 -0.4375,1.78125l0.65625,0.375l3.687489,-6.53125l-0.65625,-0.375c-0.53875,0.752441 -0.965141,1.233658 -1.281239,1.46875c-0.32373,0.20787 -0.668941,0.217796 -1,0.03125c-0.278801,-0.157082 -0.5839,-0.552063 -0.9375,-1.1875c-0.353622,-0.635406 -0.913052,-1.809311 -1.6875,-3.53125l-0.78125,-1.749992l5.718739,-0.25c0.781189,-0.041916 1.352829,0.043846 1.71875,0.25c0.4356,0.245461 0.42701,0.845711 -0.03125,1.781242c-0.01963,0.034851 -0.123329,0.277328 -0.34375,0.75l0.65625,0.375l5,-8.874992l-0.65625,-0.375c-0.272697,0.44323 -0.62442,0.739899 -1.0625,0.90625c-0.445686,0.13913 -1.33065,0.246651 -2.625,0.34375l-10.062489,0.59375l-1.71875,-3.71875c-0.902782,-2.023781 -1.43346,-3.450966 -1.5625,-4.28125c-0.129032,-0.830261 0.037319,-1.756386 0.5,-2.78125l-0.65625,-0.375zm327.749989,10.40625l-0.65625,0.375c0.425873,0.995705 0.591492,1.712074 0.5,2.1875c-0.064575,0.483971 -0.418976,0.900314 -1.09375,1.25l-12.875,6.687492c-0.674774,0.349701 -1.232788,0.427292 -1.65625,0.21875c-0.414246,-0.190811 -0.958344,-0.77034 -1.5625,-1.71875l-0.65625,0.375l4.84375,9.28125l0.65625,-0.34375c-0.453491,-1.048981 -0.63623,-1.815018 -0.5625,-2.28125c0.073761,-0.466217 0.463745,-0.859848 1.15625,-1.21875l12.90625,-6.6875c0.692505,-0.358902 1.268341,-0.435852 1.71875,-0.21875c0.450409,0.217102 0.927094,0.791794 1.46875,1.75l0.65625,-0.3125l-4.84375,-9.343742zm22.375,75.218742l-0.75,0.03125c-0.016602,1.08284 -0.191559,1.821838 -0.46875,2.21875c-0.256104,0.41571 -0.741302,0.64296 -1.5,0.6875l-14.5,0.84375c-0.758667,0.04454 -1.291962,-0.074554 -1.59375,-0.4375c-0.300598,-0.342987 -0.553314,-1.106522 -0.71875,-2.21875l-0.75,0.0625l0.65625,10.46875l0.75,-0.03125c0.013092,-1.142731 0.148987,-1.916763 0.40625,-2.3125c0.257263,-0.395752 0.752594,-0.61055 1.53125,-0.65625l14.46875,-0.875c0.778625,-0.045685 1.364563,0.149506 1.6875,0.53125c0.322906,0.381729 0.520599,1.091721 0.625,2.1875l0.75,0l-0.59375,-10.5zm-19.625,12.75l-0.09375,10.5l0.75,0.03125c0.090698,-1.139221 0.278961,-1.9039 0.5625,-2.28125c0.283539,-0.37735 0.845032,-0.538574 1.625,-0.53125l14.5,0.09375c0.779968,0.007324 1.297485,0.222198 1.59375,0.625c0.296204,0.402786 0.470337,1.149673 0.5,2.25l0.75,0.03125l0.09375,-10.5l-0.75,-0.03125c-0.090118,1.079208 -0.290222,1.810333 -0.59375,2.1875c-0.283752,0.397354 -0.771301,0.600876 -1.53125,0.59375l-14.53125,-0.125c-0.759979,-0.007141 -1.286072,-0.211136 -1.5625,-0.59375c-0.276581,-0.36261 -0.473022,-1.097855 -0.5625,-2.21875l-0.75,-0.03125zm-0.125,11.625l-0.8125,10.46875l0.75,0.03125c0.168488,-1.13031 0.410034,-1.830429 0.71875,-2.1875c0.308746,-0.357056 0.816132,-0.529465 1.59375,-0.46875l14.5,1.125c0.777618,0.060715 1.325775,0.327866 1.59375,0.75c0.267944,0.42215 0.326996,1.181442 0.28125,2.28125l0.75,0.03125l0.84375,-10.4375l-0.75,-0.09375c-0.163818,1.070511 -0.421326,1.800751 -0.75,2.15625c-0.310303,0.376984 -0.83609,0.527908 -1.59375,0.46875l-14.46875,-1.09375c-0.75769,-0.059158 -1.250427,-0.3181 -1.5,-0.71875c-0.251129,-0.380707 -0.393707,-1.12561 -0.40625,-2.25l-0.75,-0.0625z" id="path3490" stroke-width="1px" fill="url(#linearGradient3651)"/>
   <path d="m13.46876,184.6875l-0.3125,7.53125l0.75,0c0.05625,-0.418106 0.13748,-0.741714 0.1875,-1c0.03084,-0.278992 0.070131,-0.499451 0.15625,-0.65625c0.06694,-0.177521 0.170301,-0.2892 0.3125,-0.34375c0.12302,-0.075272 0.322701,-0.103027 0.5625,-0.09375c0.459671,0.017822 1.081411,0.335159 1.9375,0.96875c0.83691,0.612869 1.98995,1.500549 3.40625,2.65625l-4.625,2.71875c-0.47126,0.281967 -0.84519,0.417099 -1.125,0.40625c-0.31974,-0.01239 -0.55533,-0.107193 -0.6875,-0.3125c-0.131359,-0.22522 -0.18841,-0.61586 -0.1875,-1.15625c0.00234,-0.059937 0.018301,-0.376358 0,-0.9375l-0.75,0l-0.4375,10.34375l0.75,0.0625c0.0609,-0.53804 0.20607,-0.98999 0.4375,-1.28125c0.23147,-0.291245 0.70896,-0.629181 1.40625,-1.0625l8.96875,-5.625l6.406252,5.53125c0.541767,0.481354 0.902218,0.957321 1.125,1.40625c0.222778,0.448975 0.386219,1.007462 0.4375,1.75l0.75,0.0625l0.28125,-7.53125l-0.75,0c-0.135551,0.915466 -0.294933,1.521484 -0.46875,1.875c-0.193031,0.332779 -0.495281,0.514725 -0.875,0.5c-0.319763,-0.01239 -0.73893,-0.252518 -1.34375,-0.65625c-0.60482,-0.403732 -1.649502,-1.165741 -3.125,-2.34375l-1.5,-1.1875l4.96875,-2.84375c0.67577,-0.394119 1.205307,-0.578751 1.625,-0.5625c0.499619,0.019379 0.792809,0.552231 0.8125,1.59375c-0.001553,0.039993 0.01141,0.322601 0.03125,0.84375l0.75,0l0.375,-10.15625l-0.75,-0.0625c-0.040123,0.51886 -0.217541,0.964401 -0.53125,1.3125c-0.332932,0.327377 -1.049183,0.822388 -2.15625,1.5l-8.687502,5.125l-3.25,-2.5c-1.727539,-1.387924 -2.81843,-2.445328 -3.3125,-3.125c-0.49404,-0.679611 -0.75593,-1.564438 -0.8125,-2.6875l-0.75,-0.0625zm19.718752,22.0625l-0.75,0.03125c-0.0121,1.142761 -0.14933,1.91655 -0.40625,2.3125c-0.25692,0.396011 -0.752632,0.641144 -1.53125,0.6875l-14.500002,0.84375c-0.778599,0.046387 -1.332989,-0.11853 -1.65625,-0.5c-0.323229,-0.381439 -0.51967,-1.123062 -0.625,-2.21875l-0.75,0.0625l0.625,10.46875l0.75,-0.03125c0.01568,-1.08284 0.160631,-1.852829 0.4375,-2.25c0.255751,-0.415924 0.74136,-0.642319 1.5,-0.6875l14.500002,-0.84375c0.758659,-0.045166 1.29166,0.106064 1.59375,0.46875c0.3009,0.342697 0.552357,1.075439 0.71875,2.1875l0.75,-0.0625l-0.65625,-10.46875zm10.3125,52.062531l-0.6875,0.25c0.336067,1.092255 0.436798,1.888367 0.3125,2.34375c-0.12429,0.455353 -0.553631,0.781494 -1.28125,1.0625l-13.5625,5.25c-0.727612,0.280975 -1.294762,0.296295 -1.71875,0.03125c-0.423943,-0.265076 -0.81638,-0.925781 -1.25,-1.9375l-0.718752,0.28125l3.750002,9.8125l0.71875,-0.28125c-0.314442,-1.036316 -0.392941,-1.756195 -0.25,-2.21875c0.117107,-0.47403 0.5098,-0.882477 1.21875,-1.15625l13.5625,-5.21875c0.708969,-0.273804 1.289398,-0.284882 1.6875,-0.03125c0.3909,0.234924 0.81572,0.866241 1.3125,1.875l0.6875,-0.28125l-3.78125,-9.78125zm4.21875,10.78125l-0.65625,0.3125c0.410458,1.066528 0.561409,1.84967 0.46875,2.3125c-0.092651,0.46283 -0.480942,0.888336 -1.1875,1.21875l-13.15625,6.125c-0.706551,0.330414 -1.277531,0.360229 -1.71875,0.125c-0.441181,-0.23526 -0.935261,-0.833038 -1.4375,-1.8125l-0.65625,0.3125l4.4375,9.53125l0.65625,-0.34375c-0.385033,-1.012207 -0.51701,-1.716217 -0.40625,-2.1875c0.084198,-0.480988 0.499069,-0.89679 1.1875,-1.21875l13.15625,-6.15625c0.688438,-0.321991 1.241638,-0.350616 1.65625,-0.125c0.406139,0.207489 0.872459,0.777832 1.4375,1.75l0.6875,-0.3125l-4.46875,-9.53125zm309.843739,2.9375l-4.65625,9.40625l0.6875,0.375c0.575989,-0.987061 1.080811,-1.626801 1.5,-1.84375c0.419189,-0.21701 0.956696,-0.126282 1.65625,0.21875l13.0625,6.4375c0.699585,0.345001 1.064087,0.727295 1.15625,1.21875c0.092102,0.491425 -0.080597,1.245697 -0.53125,2.25l0.65625,0.3125l4.65625,-9.375l-0.65625,-0.34375c-0.549408,0.933228 -1.031586,1.51059 -1.46875,1.71875c-0.42804,0.234894 -1.00589,0.179901 -1.6875,-0.15625l-13,-6.4375c-0.68161,-0.336151 -1.104462,-0.722839 -1.1875,-1.1875c-0.091888,-0.446747 0.063049,-1.201294 0.46875,-2.25l-0.65625,-0.34375zm-304.874989,7.5625l-0.6875,0.375c0.482849,1.035767 0.748119,1.781891 0.6875,2.25c-0.0606,0.468109 -0.474091,0.903015 -1.156242,1.28125l-12.65625,7.03125c-0.68214,0.378235 -1.262409,0.485565 -1.71875,0.28125c-0.456329,-0.204376 -0.99408,-0.776154 -1.5625,-1.71875l-0.65625,0.34375l5.125,9.1875l0.625,-0.375c-0.453739,-0.983307 -0.640591,-1.709717 -0.5625,-2.1875c0.05093,-0.485626 0.39785,-0.91272 1.0625,-1.28125l12.718742,-7.03125c0.664669,-0.36853 1.227108,-0.477814 1.65625,-0.28125c0.419449,0.179047 0.931927,0.7565 1.562496,1.6875l0.65625,-0.375l-5.093746,-9.1875zm294.062489,11.34375l-0.40625,0.6875l11.34375,15.09375c0.607941,0.802216 0.945587,1.444763 1.03125,1.875c0.075134,0.447113 -0.047852,1.034882 -0.375,1.75l0.625,0.375l3.375,-5.4375l-0.625,-0.375c-0.638489,0.874695 -1.132599,1.406525 -1.4375,1.59375c-0.304901,0.187164 -0.654968,0.15979 -1.0625,-0.09375c-0.33963,-0.211365 -0.845215,-0.777802 -1.5,-1.65625l-6.375,-8.4375l10.71875,1.78125c1.160065,0.179962 1.881836,0.341064 2.1875,0.53125c0.560425,0.348663 0.571533,1.005768 0.0625,1.9375c-0.031677,0.050934 -0.15451,0.344391 -0.4375,0.875l0.625,0.40625l5.3125,-8.59375l-0.625,-0.375c-0.475861,0.575439 -0.867035,0.951538 -1.21875,1.0625c-0.351715,0.110901 -1.009277,0.079285 -1.90625,-0.03125l-19.3125,-2.96875zm-282.687492,6.5l-18.406239,4.34375c-0.97802,0.237976 -1.696289,0.311554 -2.125,0.21875c-0.44006,-0.109253 -0.911919,-0.44632 -1.4375,-1.03125l-0.59375,0.4375l3.625,5.25l0.59375,-0.4375c-0.547939,-0.934113 -0.82478,-1.552032 -0.875,-1.90625c-0.05019,-0.354218 0.105061,-0.664734 0.5,-0.9375c0.32914,-0.227325 1.02718,-0.468201 2.09375,-0.71875l10.281239,-2.46875l-5.874989,9.09375c-0.627209,0.992279 -1.07877,1.57666 -1.375,1.78125c-0.543049,0.375092 -1.160709,0.150574 -1.8125,-0.6875c-0.034081,-0.049377 -0.21983,-0.310333 -0.59375,-0.78125l-0.625,0.4375l5.718742,8.28125l0.65625,-0.40625c-0.338253,-0.66571 -0.538311,-1.19574 -0.5,-1.5625c0.03838,-0.366791 0.29126,-0.940063 0.75,-1.71875l10.437496,-16.53125l-0.4375,-0.65625zm33.53125,37.375l-0.4375,0.59375c0.868011,0.743317 1.39283,1.329987 1.53125,1.78125c0.138443,0.451263 -0.035347,0.998474 -0.5,1.625l-8.625,11.65625c-0.46463,0.626495 -0.968727,0.934784 -1.46875,0.9375c-0.499969,0.002686 -1.186371,-0.283142 -2.09375,-0.90625l-0.46875,0.59375l8.4375,6.25l0.4375,-0.59375c-0.819778,-0.707642 -1.279716,-1.313934 -1.40625,-1.78125c-0.154457,-0.463196 -0.015221,-0.983337 0.4375,-1.59375l8.65625,-11.6875c0.452744,-0.610443 0.902992,-0.907715 1.375,-0.90625c0.455963,-0.010468 1.165863,0.256866 2.125,0.84375l0.46875,-0.59375l-8.46875,-6.21875zm9.375,6.875l-0.4375,0.625c0.916992,0.682037 1.487183,1.246796 1.65625,1.6875c0.169083,0.440704 0.045563,0.999329 -0.375,1.65625l-7.8125,12.21875c-0.42054,0.656921 -0.907608,0.994232 -1.40625,1.03125c-0.498596,0.036957 -1.208237,-0.221893 -2.15625,-0.78125l-0.40625,0.625l8.84375,5.6875l0.375,-0.625c-0.86644,-0.649689 -1.341698,-1.22998 -1.5,-1.6875c-0.185898,-0.451477 -0.097237,-0.984955 0.3125,-1.625l7.84375,-12.21875c0.40976,-0.640076 0.841499,-1.000336 1.3125,-1.03125c0.454163,-0.041718 1.190331,0.199097 2.1875,0.71875l0.40625,-0.625l-8.84375,-5.65625zm187.343742,3.1875l-0.65625,0.4375l3.625,18.53125c0.19873,0.986725 0.234894,1.700317 0.125,2.125c-0.12674,0.435333 -0.48822,0.904449 -1.09375,1.40625l0.40625,0.625l5.40625,-3.40625l-0.40625,-0.625c-0.955231,0.510132 -1.612793,0.776489 -1.96875,0.8125c-0.355957,0.03598 -0.649445,-0.157013 -0.90625,-0.5625c-0.213959,-0.337982 -0.448517,-1.049286 -0.65625,-2.125l-2.0625,-10.375l8.875,6.25c0.966431,0.666351 1.557404,1.164581 1.75,1.46875c0.353088,0.557587 0.082245,1.132263 -0.78125,1.75c-0.05069,0.032074 -0.326965,0.238953 -0.8125,0.59375l0.40625,0.625l8.53125,-5.375l-0.40625,-0.65625c-0.678711,0.311371 -1.19754,0.459198 -1.5625,0.40625c-0.36496,-0.053009 -0.927765,-0.323029 -1.6875,-0.8125l-16.125,-11.09375zm-168.906235,7.09375l-14.062515,12.5625c-0.74781,0.673706 -1.35984,1.065674 -1.78125,1.1875c-0.439148,0.112701 -1.009697,0.0466 -1.75,-0.21875l-0.34375,0.6875l5.6875,2.875l0.34375,-0.65625c-0.925659,-0.562073 -1.506378,-0.962067 -1.71875,-1.25c-0.212311,-0.287964 -0.218086,-0.666199 0,-1.09375c0.181801,-0.356323 0.711441,-0.898193 1.53125,-1.625l7.875015,-7.0625l-0.875008,10.78125c-0.081017,1.171051 -0.21138,1.929291 -0.375,2.25c-0.299904,0.587891 -0.934738,0.678253 -1.90625,0.25c-0.053429,-0.027283 -0.353584,-0.16922 -0.90625,-0.40625l-0.34375,0.65625l9.000008,4.625l0.3125,-0.6875c-0.613739,-0.425385 -0.98465,-0.815247 -1.125,-1.15625c-0.14035,-0.341064 -0.190369,-0.971924 -0.15625,-1.875l1.3125,-19.46875l-0.71875,-0.375zm86.96875,18.5l-0.8125,0.03125l-5.84375,17.96875c-0.307404,0.958466 -0.603333,1.620209 -0.90625,1.9375c-0.322876,0.318329 -0.88298,0.544434 -1.65625,0.6875l0.03125,0.75l6.375,-0.375l-0.03125,-0.75c-1.082764,-0.020142 -1.765366,-0.076752 -2.09375,-0.21875c-0.328339,-0.142059 -0.535919,-0.458282 -0.5625,-0.9375c-0.022141,-0.399414 0.125839,-1.115692 0.46875,-2.15625l3.28125,-10.0625l4.6875,9.78125c0.519089,1.052826 0.792557,1.734283 0.8125,2.09375c0.03653,0.658966 -0.476181,1.068878 -1.53125,1.1875c-0.059891,0.003296 -0.371902,0.020569 -0.96875,0.09375l0.03125,0.75l10.0625,-0.5625l-0.0625,-0.75c-0.7444,-0.058899 -1.269638,-0.182159 -1.5625,-0.40625c-0.292862,-0.224152 -0.63768,-0.733582 -1.0625,-1.53125l-8.65625,-17.53125zm-21.9375,0.4375l-0.03125,0.75c1.135559,0.12851 1.882278,0.360291 2.25,0.65625c0.367722,0.295929 0.533264,0.845703 0.5,1.625l-0.59375,14.5c-0.033249,0.779266 -0.27507,1.279785 -0.6875,1.5625c-0.412399,0.282654 -1.149261,0.413147 -2.25,0.40625l-0.0625,0.75l10.5,0.46875l0.03125,-0.75c-1.075623,-0.126007 -1.820618,-0.340363 -2.1875,-0.65625c-0.387711,-0.296814 -0.53241,-0.803223 -0.5,-1.5625l0.59375,-14.53125c0.03241,-0.759338 0.264648,-1.267731 0.65625,-1.53125c0.371597,-0.264404 1.09549,-0.416595 2.21875,-0.46875l0.0625,-0.75l-10.5,-0.46875z" id="path3478" stroke-width="1px" fill="url(#linearGradient3648)"/>
  </g>
 </g>
</svg>